<svg xmlns="http://www.w3.org/2000/svg" width="25.18" height="25.791" viewBox="0 0 25.18 25.791">
    <path id="Path_5060" data-name="Path 5060" d="M1027.619-830.239a2.652,2.652,0,0,1-.282,0h-.192a13.1,13.1,0,0,0-3.608.631,12.762,12.762,0,0,0-4.683,2.723,12.753,12.753,0,0,0-2.772,3.62c-.035.069-.064.14-.1.211q1.648,1.257,3.3,2.516c.334.256.662.521,1.008.762a7.639,7.639,0,0,1,1.393-2.491,7.591,7.591,0,0,1,2.211-1.8,7.436,7.436,0,0,1,2.554-.848,7.533,7.533,0,0,1,3.781.41,7.526,7.526,0,0,1,1.944,1.094c.129.1.142.1.263-.022q1.725-1.723,3.449-3.449c.122-.122.125-.127-.01-.243a12.764,12.764,0,0,0-2.023-1.414,12.636,12.636,0,0,0-3.35-1.322,11.8,11.8,0,0,0-1.733-.281c-.233-.019-.465-.042-.7-.054-.041,0-.1.011-.1-.061h-.055C1027.822-830.2,1027.718-830.247,1027.619-830.239Z" transform="translate(-1014.66 830.264)" fill="#d84f3d" />
    <path id="Path_5072" data-name="Path 5072" d="M1016.009-811.662a12.25,12.25,0,0,0,1.792,2.728,12.577,12.577,0,0,0,2.687,2.356,12.615,12.615,0,0,0,2.751,1.363,13.463,13.463,0,0,0,2.477.611,12.522,12.522,0,0,0,2.507.113,12.521,12.521,0,0,0,4.392-1.019,11.568,11.568,0,0,0,2.951-1.839c.127-.109.254-.217.374-.333-.475-.366-.952-.73-1.426-1.1q-1.29-1-2.577-2c-.019-.015-.04-.028-.061-.042a7.589,7.589,0,0,1-2.958,1.044,9.3,9.3,0,0,1-1.849.076,7.315,7.315,0,0,1-2.653-.654,7.693,7.693,0,0,1-1.767-1.1,7.636,7.636,0,0,1-1.819-2.217,8.928,8.928,0,0,1-.55-1.262l-4.186,3.21C1016.067-811.7,1016.038-811.681,1016.009-811.662Z" transform="translate(-1014.66 830.264)" fill="#57a55c" />
    <path id="Path_5075" data-name="Path 5075" d="M1034.426-808.889c.452.35.9.7,1.358,1.051a.632.632,0,0,1,.163.151l.02-.018a12.024,12.024,0,0,0,1.455-1.644,12.342,12.342,0,0,0,1.616-3.1,14.319,14.319,0,0,0,.733-3.39,13.745,13.745,0,0,0,.057-1.935,10.4,10.4,0,0,0-.247-1.753.154.154,0,0,0-.18-.143c-.036,0-.073,0-.11,0h-11.436c-.256,0-.256,0-.256.254v4.453c0,.213,0,.215.214.215h6.377c.322,0,.337.018.259.328a5.9,5.9,0,0,1-1.281,2.495,5.9,5.9,0,0,1-1.277,1.093.294.294,0,0,1,.1.057Q1033.211-809.832,1034.426-808.889Z" transform="translate(-1014.66 830.264)" fill="#5186ec" />
    <path id="Path_5080" data-name="Path 5080" d="M1014.725-816.476a12.656,12.656,0,0,0,.647,3.287,10.314,10.314,0,0,0,.632,1.518v0a.983.983,0,0,1,.248-.216c1.058-.808,2.111-1.621,3.168-2.429.247-.189.495-.377.741-.567a.282.282,0,0,1,.114-.062l-.009-.022a7.745,7.745,0,0,1-.368-2.251,7.81,7.81,0,0,1,.309-2.316c.021-.074.044-.149.072-.221l0-.01a.276.276,0,0,1-.142-.077c-.672-.507-1.338-1.021-2.007-1.532l-2.028-1.549a.361.361,0,0,1-.121-.128.271.271,0,0,1-.046.161,12.681,12.681,0,0,0-1.148,3.926c-.047.367-.076.737-.09,1.108a.225.225,0,0,1-.025.119c0,.006-.011,0-.016,0v0a.086.086,0,0,1,.036.056,3.476,3.476,0,0,1,0,.661.086.086,0,0,1-.036.056v0c.005,0,.011,0,.016,0A1.939,1.939,0,0,1,1014.725-816.476Z" transform="translate(-1014.66 830.264)" fill="#f1be42" />
</svg>
